# xmcd CD database file
# Copyright (C) 1996 Ti Kan
#
# Track frame offsets:
#	150
#	14293
#	27985
#	43783
#	56175
#	72353
#	90978
#	105983
#	121653
#	135280
# Disc length: 2025 seconds
#
# Revision: 1
# Processed by: cddbd v1.5.2PL0 Copyright (c) Steve Scherf et al.
# Submitted via: CDCOPY 4.900
#
DISCID=7707e70a
DTITLE=The Rolling Stones - The Roling Stones Vol.2
DYEAR=1900
DGENRE=
TTITLE0=Lady Janne
TTITLE1=Time Is On My Side
TTITLE2=Jumpin' Jack Flash
TTITLE3=Mother's Little Helper
TTITLE4=Let's Spend The Night Together
TTITLE5=She's A Rainbow
TTITLE6=Ruby Tuesday
TTITLE7=Dandelion
TTITLE8=Honky Tonk Women
TTITLE9=Under My Thumb
EXTD=
EXTT0=
EXTT1=
EXTT2=
EXTT3=
EXTT4=
EXTT5=
EXTT6=
EXTT7=
EXTT8=
EXTT9=
PLAYORDER=
